# xmcd CD database file
# Copyright (C) 1997 Ti Kan
#
# Track frame offsets:
#  150
#  13702
#  27532
#  38315
#  52925
#  64772
#  78347
#  91265
#  105277
#  118910
#  131207
#  145085
#  156285
#  170162
#  182215
#  191620
#  204515
#  216372
#  230727
#  243995
#
# Disc length: 3399 seconds
#
# Revision: 1
# Processed by: cddbd v1.4b41PL1 Copyright (c) Steve Scherf et al.
# Submitted via: CDWizzard Release:4.32
#
DISCID=190d4514
DTITLE=Various Artist - Kiwi Nostalgia - Hits of the 50's
DYEAR=1900
DGENRE=
TTITLE0=Blue Smoke
TTITLE1=It's a Sin to Tell a Lie
TTITLE2=Opo the Crazy Dolphin
TTITLE3=One by One
TTITLE4=Sweet Georgia Brown
TTITLE5=The Glory of Love
TTITLE6=I'll String Along with You
TTITLE7=Haere Mai
TTITLE8=Busy Line
TTITLE9=I'll Come when you Call
TTITLE10=A Dreamer's Holiday
TTITLE11=Keep your Eyes on the Hands
TTITLE12=A Man Called Peter
TTITLE13=Hilo March
TTITLE14=Be my Little Baby Bumble Bee
TTITLE15=Best Wishes
TTITLE16=Jim Jams
TTITLE17=The Kentuckian Song
TTITLE18=Dixie Danny
TTITLE19=The Shifting Whispering Sands
EXTD=
EXTT0=
EXTT1=
EXTT2=
EXTT3=
EXTT4=
EXTT5=
EXTT6=
EXTT7=
EXTT8=
EXTT9=
EXTT10=
EXTT11=
EXTT12=
EXTT13=
EXTT14=
EXTT15=
EXTT16=
EXTT17=
EXTT18=
EXTT19=
PLAYORDER=
